<svg width="537" height="110" viewBox="0 0 537 110" fill="none" xmlns="http://www.w3.org/2000/svg">
<path d="M362.103 29.0346C360.346 29.8761 358.858 30.5975 356.898 30.5975C355.478 30.5975 353.72 30.4773 353.72 32.521C350.745 32.8216 350.407 35.5867 348.514 36.849C344.863 39.1934 342.565 42.6798 339.32 45.445C338.103 46.4668 337.021 47.5488 335.398 48.0297C331.342 49.1718 328.638 51.8769 325.866 54.4616C324.446 55.7841 323.026 57.1065 320.795 57.4672C319.713 57.6475 318.902 58.3688 318.158 59.0301C316.198 60.8334 314.17 62.5766 312.277 64.38C309.572 66.9648 306.192 68.8282 302.879 70.7518C299.566 72.6753 295.78 74.3584 294.563 78.2657C294.361 78.8668 293.752 79.4078 293.211 79.7684C291.589 80.8504 292.13 81.9324 293.685 81.8723C296.389 81.7521 298.958 82.9543 301.595 82.1729C302.812 81.8122 304.028 81.7521 305.178 81.5117C308.896 80.7903 312.615 80.3094 316.401 81.2111C320.254 82.0527 324.04 80.61 327.894 80.7903C329.381 80.8504 330.733 80.9707 332.086 81.8122C334.519 83.4352 339.59 82.0527 338.914 78.5061C338.711 77.3039 338.914 76.0415 339.725 75.1399C340.469 74.1781 339.86 73.2764 339.996 72.3748C340.401 69.6096 342.024 67.3254 343.511 64.9811C345.472 61.9154 345.607 58.2486 347.906 55.3032C348.988 53.8605 350.069 52.4179 350.948 50.855C352.976 47.068 354.531 43.1006 355.883 39.0732C356.357 37.6906 357.709 36.5485 359.061 35.8272C361.224 34.5648 362.712 32.5811 365.078 31.6194C365.957 31.2587 366.295 30.5975 365.416 29.6958C364.47 28.6739 365.146 27.5318 366.43 27.7121C368.594 28.0127 369.811 27.3515 370.622 25.3678C370.96 26.4498 371.298 27.1711 371.366 27.9526C371.433 28.7941 371.501 29.2149 372.718 29.275C373.799 29.3351 374.611 29.5756 373.597 31.1986C371.095 35.4665 369.608 40.095 372.447 44.7837C372.921 45.5652 372.921 46.2264 372.921 47.0078C372.853 48.9314 372.853 50.7948 374.002 52.7184C374.746 54.0408 374.881 55.8442 373.732 57.4672C372.515 59.2104 372.515 61.134 374.138 62.9373C375.219 64.1395 374.678 65.7024 374.949 67.085C375.016 67.5058 374.678 67.9265 375.287 68.4675C376.301 65.462 378.329 62.9373 379.614 60.1722C381.439 56.3251 384.82 53.2594 386.848 49.4724C387.862 47.6089 389.146 45.8056 389.484 43.8219C390.161 39.9147 392.256 36.4884 393.879 32.9418C395.772 28.7941 398.341 24.947 401.316 21.3404C401.519 21.0398 401.654 20.6791 401.857 20.3786C402.803 18.5752 402.465 16.291 405.305 15.209C406.522 14.7882 407.062 12.9849 407.671 11.2417C408.55 13.2253 407.941 14.668 407.198 15.9905C405.845 18.6353 404.967 21.3403 405.034 24.2858C405.102 26.8105 403.547 29.0346 402.803 31.439C402.465 32.521 402.127 33.4828 402.33 34.6249C402.6 35.9474 402.195 37.2698 401.451 38.4119C396.583 46.5871 392.256 55.0026 388.335 63.5985C387.253 65.8828 386.713 68.4074 385.496 70.6917C385.022 71.6534 384.955 72.9759 385.834 73.6972C386.713 74.3584 387.929 73.6371 388.876 73.2764C392.053 72.0141 394.893 70.2709 398.476 69.8501C399.828 69.6698 400.707 68.2872 400.91 67.2653C401.316 64.9811 402.668 63.0575 404.155 61.4345C407.13 58.2486 408.82 54.3414 411.998 51.3358C412.944 50.4943 413.282 49.3522 412.741 48.2702C411.998 46.7073 412.674 45.6253 413.891 44.6635C415.175 43.6416 415.987 42.4394 416.392 40.9967C416.527 40.5158 416.663 39.9147 417.068 39.6142C421.192 36.5485 423.288 31.98 427.886 29.275C430.117 27.9526 432.077 26.0891 433.227 23.865C434.241 21.8814 435.863 20.5589 437.553 19.1162C438.094 18.6955 438.568 18.3348 439.244 18.3949C440.528 18.5752 441.475 18.3949 441.677 17.0123C441.745 16.6517 442.151 16.3511 442.624 16.4112C443.232 16.5314 443.368 17.0725 443.232 17.4932C441.542 21.701 442.759 26.0891 442.218 30.4171C442.083 31.6194 441.745 33.0019 441.001 33.9637C438.568 37.1496 437.891 40.6962 437.891 44.3629C437.891 45.9258 437.689 47.3685 436.539 48.691C435.255 50.1937 434.714 51.937 434.849 53.8605C435.12 57.0464 434.443 60.1121 433.227 63.0575C432.415 64.9811 433.429 66.9647 433.362 68.9484C433.362 69.4293 433.903 69.6698 434.376 69.79C437.148 70.6315 439.987 70.7518 442.759 69.9102C444.247 69.4894 444.787 68.2271 444.923 67.1451C445.464 63.5384 448.371 61.1941 450.331 58.3689C452.157 55.8442 454.252 53.56 456.01 50.9752C456.619 50.1336 457.903 48.9915 456.416 47.6691C455.943 47.2483 456.619 46.587 456.957 46.1062C460.27 40.3355 465.07 35.5266 469.735 30.5975C470.546 29.7559 471.492 28.9745 472.574 28.4936C474.738 27.4717 476.157 25.7886 476.833 23.8049C478.05 20.2583 481.025 18.8758 484.743 18.2747C485.352 18.1545 486.028 18.0943 486.569 18.0342C487.245 21.8814 486.637 25.6684 486.704 29.4554C486.704 30.6576 485.96 31.98 485.352 33.1221C483.594 36.4884 482.377 39.9147 482.986 43.7017C483.256 45.4449 482.242 46.8275 481.025 48.0297C480.146 48.9314 479.132 49.8932 479.267 51.0954C479.673 54.2813 478.794 57.2267 478.118 60.2924C477.78 61.675 477.104 63.0575 476.563 64.4401C475.481 67.085 476.36 68.9484 478.997 70.0905C480.011 70.5113 480.619 70.4512 480.417 69.3091C480.349 68.708 480.079 68.1069 481.025 67.8664C481.566 67.7462 482.242 67.6861 482.715 68.0467C483.324 68.5276 483.121 69.0686 482.58 69.6096C482.174 70.0304 481.904 70.6315 482.783 70.7518C483.459 70.872 484.338 71.2928 484.676 70.0905C485.622 66.6642 487.245 63.4182 489.273 60.4728C491.504 57.2267 490.963 53.1392 494.073 50.2538C496.372 48.15 497.724 45.5051 498.941 42.9203C500.496 39.7945 502.254 36.7889 503.674 33.603C504.891 30.9581 506.446 29.0947 509.555 27.8324C513.409 26.2094 516.654 23.6246 520.508 21.9415C521.657 21.4606 521.184 20.2583 521.319 19.2966C521.387 18.6955 521.319 17.9741 522.266 18.0342C523.077 18.0943 522.807 18.7556 522.807 19.2966C522.807 21.3403 523.347 23.5645 522.671 25.4279C521.792 28.1329 521.319 31.1385 518.885 33.3025C515.64 36.1878 513.071 39.4939 511.719 43.4012C511.448 44.1225 511.11 44.9039 510.367 45.2045C505.364 47.4887 506.108 52.7785 503.065 56.1447C503.606 59.8115 500.969 62.4564 499.212 65.3417C497.724 67.8063 497.859 70.4512 497.319 72.9759C496.845 75.0798 499.009 76.5825 501.375 75.6208C506.446 73.6371 511.584 74.2983 516.722 74.8994C519.088 75.2 521.116 73.9377 523.28 74.2382C526.39 74.7191 529.635 75.0798 531.528 77.905C532.204 78.8668 533.624 79.2875 534.976 79.4679C535.584 79.528 536.328 79.5881 536.937 80.4297C534.705 79.7684 532.677 79.528 530.649 79.5881C528.959 79.6482 527.336 79.7684 526.119 80.9707C525.917 81.151 525.578 81.5117 525.308 81.4516C521.184 80.9106 517.804 83.856 513.544 83.1948C510.975 82.774 508.271 82.9543 505.972 84.5172C505.364 84.938 504.214 84.8779 503.336 84.8779C498.4 84.6976 493.938 86.2605 489.341 87.7031C486.434 88.6048 483.459 87.7031 480.484 87.8834C480.349 87.8834 480.079 87.8233 480.079 87.7031C479.47 85.2386 477.374 86.561 475.752 86.3206C476.495 84.5172 477.645 82.8341 477.78 80.9106C477.915 79.7083 478.456 78.5662 477.036 77.4842C476.293 76.9432 476.698 76.1017 477.78 75.9213C478.388 75.8011 479.064 75.6809 479.741 75.5607C480.349 75.3803 480.755 75.0197 480.687 74.4185C480.687 73.8174 480.079 73.8776 479.605 73.6972C477.712 73.1562 476.293 73.8775 474.535 74.5388C470.275 76.1618 472.642 79.4078 472.101 81.8122C471.357 85.0582 470.478 88.184 468.923 91.2497C467.436 94.2552 466.151 97.3209 463.582 100.387C463.65 96.84 463.312 93.594 462.771 90.4081C462.095 86.5009 461.892 82.6538 463.312 78.7466C464.191 76.282 463.109 75.5607 460.134 75.4404C456.822 75.2601 453.779 75.6208 450.872 77.1235C450.264 77.4241 449.249 77.2438 448.438 77.2438C446.41 77.2438 444.72 78.0252 444.517 79.8887C444.179 83.0145 441.88 85.0582 439.582 86.9818C437.013 89.0857 435.12 91.6705 432.821 93.9547C431.942 94.7962 431.063 95.1569 429.711 95.1569C431.942 91.6705 432.212 87.7031 434.105 84.1566C434.849 82.7139 435.998 80.4297 434.646 78.3859C433.227 76.2219 430.995 77.1837 429.102 77.2438C427.412 77.2438 427.75 78.6864 427.818 79.6482C428.088 83.9762 426.601 87.9436 424.843 91.8508C424.438 92.7525 423.964 93.8345 423.897 94.676C423.626 97.381 420.584 98.6434 420.043 101.228C418.691 99.1243 419.029 96.9001 419.164 94.7962C419.367 91.3699 419.908 88.0037 418.623 84.5773C417.88 82.4734 419.232 80.4297 419.84 78.3859C420.651 75.6208 420.313 75.6208 417.204 75.5006C412.674 75.3202 408.617 77.364 404.155 77.3039C402.533 77.3039 400.978 78.0853 401.316 80.1291C401.654 82.1729 399.085 82.7139 398.273 84.2768C397.056 86.6812 394.285 88.3042 392.865 90.4682C390.431 94.2552 385.698 96.1187 383.603 100.026C383.332 100.507 382.926 100.807 381.98 100.867C383.738 98.7636 384.549 96.3591 385.698 94.0148C387.253 90.9491 389.349 88.0037 390.161 84.7577C390.634 82.8942 392.256 80.8504 390.769 78.6263C390.16 77.7247 389.62 77.3039 388.606 77.1837C387.389 77.0033 386.239 77.0634 385.022 76.5826C383.738 76.0415 382.724 77.364 382.183 78.2657C380.493 80.9707 377.924 82.8942 375.49 84.9981C372.853 87.2823 369.675 86.9818 366.498 86.3807C365.146 86.1402 365.078 84.8178 365.551 84.0363C366.971 81.692 365.822 79.4078 364.808 77.4842C362.374 73.036 360.954 68.4074 360.751 63.4783C360.751 62.8772 360.616 62.3362 360.481 61.7351C360.21 60.593 359.129 59.9317 358.115 59.6312C356.965 59.3306 356.898 60.593 356.492 61.2542C355.41 62.9974 354.126 64.6204 352.368 65.8828C350.948 66.9648 350.678 68.2872 350.678 69.9703C350.61 72.8557 348.988 75.3803 346.418 77.3039C344.863 78.446 343.308 79.4679 342.362 81.0909C342.092 81.5117 341.753 81.692 341.28 81.9324C337.9 83.5554 337.832 84.6976 341.077 86.8015C338.644 86.3206 336.21 86.7413 333.708 86.3206C330.801 85.8397 327.624 86.5009 325.122 87.7031C322.891 88.7851 320.728 88.8452 318.496 88.7851C315.319 88.6649 312.209 88.3042 309.437 90.1076C308.626 90.6486 307.476 90.4081 306.53 90.4081C301.324 90.4081 296.456 91.6705 291.453 92.9929C287.87 93.9547 283.273 95.0367 279.419 92.3918C278.135 91.4901 276.512 90.9491 274.754 91.6104C273.943 91.9109 273.132 91.6104 273.267 91.0092C273.537 89.0857 271.239 87.9436 271.577 86.0801C271.644 85.5391 271.306 85.1784 270.766 85.1784C268.535 85.0582 266.101 84.6976 264.275 85.8998C261.977 87.4026 259.272 87.8233 256.838 88.7851C253.12 90.2879 249.875 88.725 246.697 87.2222C242.573 85.1785 239.869 82.233 239.193 77.9651C239.125 77.5443 238.855 77.1235 238.517 76.823C237.097 75.6208 237.367 74.4787 238.314 73.0961C239.937 70.8119 239.531 67.2052 237.367 65.462C236.083 64.4401 234.46 64.6204 233.311 65.6423C230.607 68.0467 227.091 69.9703 226.956 73.9377C226.956 74.7191 226.28 75.2601 225.536 75.6809C224.387 76.3421 223.44 77.364 223.237 78.446C222.629 81.151 220.533 82.774 218.505 84.4571C217.153 85.5391 216.612 86.8616 216.612 88.3643C216.68 90.889 215.53 92.8126 213.299 94.1951C211.541 95.2771 210.46 97.1406 207.958 97.3209C207.282 97.381 207.214 98.7035 206.133 99.2445C206.471 96.9001 207.214 94.7962 207.282 92.512C207.35 91.2497 206.809 89.8671 207.891 88.6649C208.229 88.2441 208.093 87.5228 207.35 87.1621C206.741 86.8616 206.2 87.0419 205.727 87.4026C203.564 89.1458 201.4 90.889 199.44 92.8126C198.087 94.135 192.679 95.3974 189.975 94.676C188.149 94.1951 186.459 93.4137 184.498 93.7744C183.957 93.8946 183.552 93.5339 183.281 93.1732C180.239 89.0256 177.873 84.7577 179.969 79.6482C180.239 78.987 180.239 78.3859 180.171 77.7247C180.036 75.9213 180.239 74.1781 181.321 72.6152C181.929 71.7135 182.064 71.0523 181.118 70.331C174.83 76.5826 168.07 82.3532 159.281 85.7796C156.103 87.0419 153.061 88.4244 149.748 89.3862C148.125 89.8671 147.044 88.9655 145.759 88.725C139.404 87.5829 135.212 83.5554 133.928 77.9651C133.387 75.6208 132.981 73.3966 133.995 71.0523C134.198 70.6315 134.266 70.1507 134.198 69.7299C133.657 65.7024 135.821 62.216 136.565 58.4891C137.105 55.4835 138.525 52.7184 138.931 49.7128C139.336 47.0078 141.77 45.1444 144.137 43.5214C146.368 41.9585 148.261 40.2153 149.883 38.1715C153.061 34.0839 157.793 31.7997 162.931 30.2969C164.216 29.9363 165.433 29.4554 166.515 28.7941C167.732 28.0728 169.016 27.7121 170.436 27.7121C170.977 27.7121 171.585 27.652 172.126 27.4717C173.14 27.1711 173.208 24.947 174.019 25.6082C175.777 27.1711 178.616 26.2695 180.104 28.1329C180.307 28.4335 180.712 28.8543 181.05 28.8543C186.324 28.4936 184.295 32.7615 185.648 34.7451C186.256 35.5867 185.918 36.4884 184.431 36.5485C183.214 36.6086 182.605 37.3299 182.741 38.3518C182.943 39.6142 184.025 38.8327 184.769 38.8327C186.594 38.9529 187.743 39.7344 187.405 41.2973C187.135 42.3793 187.541 43.1006 188.014 43.9422C188.893 45.5051 189.772 47.0679 188.352 48.8713C187.879 49.4724 187.743 50.4943 188.082 51.2156C189.772 54.3414 187.541 56.7458 186.324 59.3306C185.648 60.7733 184.296 61.8553 184.16 63.4783C184.093 63.8991 183.417 64.5002 184.363 64.7406C184.972 64.921 185.512 64.5603 185.783 64.0794C187.203 61.4946 188.352 58.7295 190.11 56.3251C192.408 53.1392 193.896 49.2319 198.155 47.4286C199.575 46.8275 200.251 45.6253 201.062 44.5433C205.93 38.2917 212.488 33.603 218.978 28.8543C221.344 27.111 223.508 25.3077 226.55 24.4661C234.866 22.3021 242.235 22.1819 247.509 28.4936C249.74 31.1385 249.942 33.5429 247.982 36.3682C247.373 37.2698 246.359 38.1114 246.9 39.554C247.306 40.5158 246.494 41.4175 245.075 41.2372C243.384 41.0568 241.762 40.7563 240.207 41.9585C239.598 42.4394 238.044 42.3793 238.044 41.1169C238.044 38.8928 236.691 36.849 236.691 34.685C236.691 32.9418 235.677 32.9418 234.325 33.1221C232.094 33.4227 230.201 34.5047 228.105 35.1659C222.832 36.7889 218.302 39.554 214.448 43.1607C211.744 45.6854 209.378 48.5106 207.214 51.4561C206.876 51.937 206.471 52.478 205.93 52.7785C202.009 55.183 199.845 58.9099 198.155 62.4564C196.6 65.7024 195.518 69.4293 196.194 73.3967C196.6 76.1618 196.262 79.3477 194.437 81.9926C193.558 83.1948 193.423 84.5773 194.301 85.479C195.045 86.2604 196.465 85.5391 197.682 85.2386C202.009 84.0964 204.916 80.9105 208.769 79.1673C209.851 78.6864 210.933 78.1454 212.082 77.7848C214.043 77.1236 215.125 75.8612 215.53 74.118C215.801 73.1562 215.463 72.0742 216.206 71.1725C216.68 70.6315 216.206 70.1506 215.733 69.8501C215.125 69.3692 214.719 69.6096 214.516 70.2709C214.381 70.8119 213.975 70.6315 213.57 70.3911C211.541 69.3091 209.378 68.4074 207.62 66.9648C206.133 65.7625 205.119 64.4401 206.471 62.6969C207.079 61.9154 206.268 61.5548 205.93 61.0137C205.389 60.1722 205.186 59.2104 206.809 59.3907C210.527 59.8716 214.246 58.5492 217.964 59.4509C218.911 59.6913 219.925 59.6312 220.939 59.511C222.697 59.3306 224.319 59.4509 226.009 60.052C227.97 60.7132 229.998 60.6531 231.959 59.6312C233.784 58.6694 235.677 58.429 237.908 59.0902C240.951 60.052 241.424 59.0301 242.235 56.3251C243.249 52.7785 243.385 48.8112 246.562 45.8657C248.117 44.423 248.726 42.1989 250.957 41.1771C255.351 39.1934 257.379 34.8053 261.841 32.8216C263.464 32.1003 265.019 31.3789 266.709 30.7778C270.766 29.3953 274.687 27.652 279.014 27.0509C281.38 26.7504 283.611 26.57 285.436 28.3734C285.977 28.9144 286.721 29.3952 287.6 29.3351C289.493 29.1548 290.169 29.7559 289.696 31.4991C289.493 32.2205 289.628 33.1221 289.899 33.9036C290.439 35.2861 290.913 36.4283 288.682 36.9092C287.803 37.0895 287.735 37.931 287.803 38.5923C287.938 39.3136 288.614 39.0732 289.155 39.0732C290.642 39.0732 292.13 39.3737 291.859 41.0568C291.521 42.8 292.67 43.8821 293.617 45.0843C294.496 46.2865 294.563 47.3685 293.82 48.5106C292.941 49.8331 292.332 51.0954 293.346 52.5982C293.887 53.3796 293.617 54.2813 293.076 54.8824C290.913 57.1666 290.845 60.2924 288.952 62.757C288.005 64.0193 289.155 66.003 288.005 67.5058C285.369 70.872 282.8 74.2983 279.149 76.8831C276.918 78.446 275.16 80.5499 272.456 81.7521C271.644 82.1128 271.644 83.1347 271.239 83.7959C277.932 85.1183 283.949 81.8122 286.18 76.2219C287.262 73.5169 290.169 71.7736 292.535 69.9102C295.51 67.5659 298.417 65.2215 300.716 62.3362C302.744 59.7514 305.651 57.8279 308.491 55.9644C311.803 53.8004 314.846 51.4561 317.618 48.7511C321.066 45.3848 324.852 42.3192 328.502 39.1934C328.84 38.8928 329.314 38.6524 329.584 38.2917C330.801 36.6687 330.125 35.6468 327.962 35.4064C323.702 34.9255 319.713 36.3681 315.589 36.5485C314.913 36.6086 314.237 36.849 313.696 36.3682C311.33 34.2643 307.409 33.4828 306.868 29.816C306.8 29.3351 306.395 28.9745 305.854 28.9745C304.569 28.9144 305.178 28.0127 304.975 27.4717C304.637 26.6301 305.583 27.111 305.921 26.9307C308.761 25.3678 312.479 26.0891 315.251 24.3459C315.454 24.2257 315.792 24.2257 315.927 24.2858C319.713 26.2695 323.702 24.6465 327.556 24.7066C329.314 24.7066 330.936 25.488 332.897 25.1274C334.046 24.8869 334.79 24.0454 336.007 24.0454C338.035 23.9852 340.063 24.1055 341.821 25.1274C343.579 26.1492 345.607 26.3296 347.433 25.7285C350.407 24.8268 353.247 25.5481 356.154 25.7886C357.303 25.9088 358.588 26.1492 358.791 27.7723C359.061 28.8543 360.886 28.2531 362.103 29.0346ZM174.087 40.1552C171.518 40.2153 169.219 40.636 167.258 42.4995C163.946 45.6253 160.43 48.6909 156.779 51.5763C153.534 54.101 151.033 57.1065 150.154 61.134C149.68 63.1777 148.531 65.0412 147.449 66.9648C146.097 69.3692 145.286 72.2545 146.841 74.7792C149.004 78.1454 151.709 78.7466 156.103 78.2056C157.929 77.9651 158.875 76.4623 160.7 76.4022C162.932 76.3421 164.757 75.3202 166.312 73.8775C168.272 72.0742 169.354 69.79 170.842 67.7462C174.087 63.298 176.453 58.3689 180.509 54.3414C181.997 52.8987 182.335 50.9151 181.862 48.9314C181.524 47.3685 182.132 46.4067 183.89 46.4067C185.58 46.4067 185.512 45.6253 185.512 44.5433C185.512 42.7399 183.552 42.0787 182.808 40.7563C182.402 40.095 181.862 39.2535 180.983 39.7945C180.307 40.2153 178.819 40.6962 179.969 41.9585C180.307 42.3192 180.509 42.8 179.901 43.1006C179.293 43.4012 178.955 42.9804 178.752 42.5596C178.008 40.4557 176.183 40.1552 174.087 40.1552ZM289.696 46.6472C290.237 43.3411 289.899 41.8383 288.208 40.3956C287.667 39.9147 287.059 39.013 286.248 39.9147C285.774 40.4557 284.152 40.7563 285.301 41.8984C285.639 42.259 285.91 42.7399 285.436 43.0405C284.693 43.4613 284.49 42.7399 284.152 42.3793C281.853 39.7945 276.174 39.3737 273.47 41.6579C270.157 44.4832 267.047 47.5488 263.464 50.1937C259.543 53.0791 256.703 56.6857 255.351 61.2542C254.878 62.9974 254.607 65.0412 253.052 66.3035C251.43 67.5659 251.295 69.0085 251.362 70.6315C251.362 71.5332 251.43 72.3748 251.295 73.2764C251.024 75.6809 252.917 77.4842 255.689 77.1837C257.109 77.0033 258.461 77.0033 259.881 77.1235C262.991 77.364 265.965 76.6427 268.67 75.5006C271.442 74.3584 273.199 72.3748 274.484 69.6698C275.904 66.6041 277.932 63.5985 280.569 61.134C282.259 59.5711 281.921 57.0464 283.746 55.724C286.991 53.3195 287.803 50.3741 286.924 46.8275C286.856 46.4668 286.653 45.9859 287.262 45.6253C288.141 45.9258 288.884 46.2865 289.696 46.6472ZM424.167 52.8386C421.733 54.4015 418.826 55.3032 417.947 57.888C417.001 60.6531 415.446 62.9373 413.215 64.921C412.606 65.462 412.403 66.003 413.079 66.6041C414.432 67.8063 416.189 67.8063 417.677 67.3254C419.232 66.7844 421.733 66.9647 422.004 65.0412C422.68 61.0738 424.235 57.2267 424.167 52.8386ZM467.639 52.5982C465.881 54.101 463.92 55.1228 462.906 56.6857C461.013 59.4509 459.593 62.5766 457.498 65.2817C456.686 66.3035 457.16 66.8445 458.309 67.2653C460.608 68.1069 462.703 67.2653 464.732 66.544C466.151 66.0631 465.475 64.7406 465.746 63.839C465.881 63.4182 466.084 62.9974 466.151 62.5766C466.76 59.3306 468.112 56.2049 467.639 52.5982Z" fill="white"/>
<path d="M39.4802 109.764C39.2774 108.201 40.0211 106.698 40.9676 105.616C44.8212 101.228 45.4973 95.818 47.8635 90.949C49.0805 88.4243 48.2692 85.4789 50.0946 83.1947C52.1904 80.5498 53.4073 77.5442 54.0834 74.5387C54.6243 72.0741 55.0975 69.7297 56.2469 67.4455C56.5849 66.7843 57.1258 65.7023 56.4497 65.4017C55.7736 65.1012 54.3539 65.4018 53.813 65.8826C50.6354 68.5877 46.4438 70.2106 43.6043 73.4566C42.5225 74.719 41.1704 75.8611 39.4126 76.4622C38.2633 76.8229 38.0604 77.6644 38.128 78.6262C38.2633 80.6099 38.3985 82.5936 38.4661 84.5772C38.4661 84.9379 39.0069 85.7794 37.8576 85.539C37.2492 85.4188 36.0322 85.8997 36.1674 84.8177C36.3026 83.7958 35.6266 82.834 36.7083 81.752C37.6548 80.7902 37.3168 79.4077 35.4237 79.3476C34.4772 79.2874 34.004 79.1071 33.9364 78.3257C33.9364 77.7847 34.4096 77.0633 33.5307 76.8229C32.7194 76.6425 32.449 77.3639 32.111 77.8448C31.8405 78.1453 31.7053 78.4459 31.2321 78.6262C30.9617 77.4841 31.4349 76.6425 32.1786 75.8611C33.7336 74.2381 34.0716 72.6752 32.5166 70.7516C31.2997 69.1887 31.8405 67.2051 31.3673 65.4017C31.1645 64.7405 31.4349 63.8389 30.4208 63.4181C29.2715 64.0192 29.0686 65.2214 28.5954 66.1231C27.0404 68.8882 25.0122 71.1123 22.3755 73.1561C20.8205 74.3583 20.5501 76.4021 20.2121 78.2054C19.4008 82.1127 17.9134 85.6592 13.7217 87.7631C12.2344 88.4845 12.2344 90.6485 10.2061 90.949C6.08208 91.49 5.94687 94.9765 4.12146 97.2607C3.44539 98.1022 2.83692 98.9438 2.29606 99.8455C1.95802 100.447 1.41716 100.927 0.808695 100.567C-0.00259492 100.086 0.876303 99.6651 1.14673 99.1843C4.25668 95.1568 7.0962 91.0692 7.70466 85.9598C7.90749 83.9761 9.12442 82.1127 9.19203 79.9487C9.25964 77.4841 11.2203 75.6808 12.4372 73.5769C13.7217 71.3528 14.6682 69.2489 14.9387 66.604C15.2091 64.1394 17.0345 61.7951 18.2514 59.4507C20.0092 56.0244 21.1586 52.4778 22.3079 48.8712C23.3896 45.565 24.5389 42.1387 25.9587 38.8927C26.2291 38.2916 26.9728 37.6905 27.5813 37.3298C31.0293 35.4063 33.3279 32.8816 33.1927 28.7339C36.3703 30.4771 38.8717 29.3951 41.3732 27.712C42.1845 27.171 41.9817 26.6901 41.9817 26.0289C41.9141 25.3076 42.3873 24.7666 42.9958 24.3458C43.4014 24.0452 43.8747 24.2857 44.0775 24.5862C44.4155 25.1873 44.4832 26.089 44.0099 26.4497C42.5225 27.712 43.1986 29.1547 43.2662 30.5974C43.3338 34.204 43.2662 37.7506 42.3197 41.2971C41.6436 43.7016 42.4549 46.4066 42.1169 48.9313C41.7112 52.2975 43.5366 55.5435 42.4549 58.8496C42.3197 59.2704 42.3873 59.7513 42.9958 59.9316C43.469 60.0518 43.7395 59.7513 44.0099 59.5109C47.5931 56.325 50.9059 52.8986 55.0299 50.1936C58.8836 47.6689 61.9259 44.3628 65.9823 42.0185C68.9571 40.2753 71.8642 37.9309 73.6896 35.2259C75.6502 32.2805 77.6108 29.1547 78.2193 25.4879C78.8278 21.9413 80.5856 18.9959 84.5068 17.3128C84.7772 17.1925 85.1153 17.0122 85.3181 16.7718C87.2787 14.6078 89.4421 13.105 92.8901 14.187C93.7014 14.4274 94.8508 14.1269 95.5944 13.4055C96.0001 12.9848 96.5409 12.8044 97.1494 13.2252C97.5551 13.5258 97.5551 13.9465 97.4198 14.4274C96.7438 16.9521 96.5409 19.597 94.4451 21.6408C93.2958 22.7829 93.9719 24.5261 93.0253 25.7885C92.8225 26.0289 92.8901 26.3896 92.7549 26.63C88.09 33.4827 84.8448 40.9365 80.3151 47.8493C78.5574 50.4942 76.1911 52.7784 73.8924 54.9424C71.0529 57.5873 69.0247 60.8333 68.5514 63.899C67.4021 71.1724 60.6414 75.6808 58.4779 82.3531C54.8947 85.1182 53.6102 89.0856 52.0552 92.8125C51.6496 93.7742 50.9735 93.1731 50.6354 93.2934C49.0805 94.1349 48.0664 95.5175 47.3903 96.9601C45.3621 101.168 42.7254 105.015 40.4943 109.103C40.2239 109.704 40.0211 109.824 39.4802 109.764Z" fill="white"/>
<path d="M107.426 29.5755C107.088 28.1328 107.629 27.3514 108.778 27.2312C109.792 27.1109 109.995 27.9525 110.265 28.6738C110.401 29.0946 110.806 29.6957 111.077 29.6957C113.781 29.5154 112.091 30.8378 111.82 31.5592C110.941 34.0237 109.995 36.4282 109.184 38.8326C108.846 39.7944 108.846 40.8764 109.454 41.6578C111.212 44.0022 110.536 46.9476 112.091 49.3521C112.429 49.8931 112.091 50.7947 112.023 51.5161C111.888 55.8441 112.361 60.1721 112.023 64.5001C111.956 65.3416 111.753 66.5439 112.834 66.7843C113.849 67.0248 114.322 65.9428 114.795 65.1613C116.891 61.3142 119.798 57.8277 122.435 54.2211C124.395 51.5161 125.747 48.5105 127.032 45.505C127.1 45.3246 127.235 45.0842 127.235 44.8437C126.626 40.7562 129.601 37.8708 131.629 34.6248C132.711 32.8215 133.252 30.7777 134.469 29.0345C137.173 25.1874 139.607 21.22 141.162 16.892C141.162 16.8319 141.297 16.7718 141.297 16.7117C141.23 14.728 142.514 13.4657 144.407 12.8646C145.692 12.4438 146.165 11.5421 146.435 10.5804C147.314 7.45458 149.342 4.74958 150.086 1.56369C150.221 1.02269 150.357 -0.239647 151.506 0.241243C152.655 0.722132 151.506 1.44347 151.371 2.04458C150.154 6.49281 147.585 10.5203 145.962 14.9084C144.61 18.5751 144.475 22.4223 142.987 26.0289C142.244 27.8323 141.365 29.5755 140.892 31.3788C139.81 36.1877 138.931 41.0567 136.227 45.505C133.32 50.2537 130.683 55.1227 128.046 60.0519C127.167 61.735 126.153 63.4782 126.424 65.4619C126.626 66.7242 125.747 67.7461 125.139 68.7079C123.719 70.932 122.773 73.2162 122.367 75.6808C122.367 75.801 122.367 76.0414 122.299 76.1016C119.73 78.0852 119.798 81.6318 116.553 83.2548C114.998 84.0362 113.578 85.1182 112.226 86.1401C110.671 87.3423 108.778 87.3423 107.291 86.8013C104.654 85.7794 103.234 86.8615 101.814 88.4243C101.476 88.785 101.071 89.5063 100.462 89.0856C99.7185 88.5446 100.395 88.0637 100.935 87.703C103.234 86.1401 104.722 84.2767 104.857 81.5717C104.924 80.1891 104.722 78.9869 103.707 77.8448C101.747 75.6207 100.124 73.2763 100.462 70.2708C100.53 69.5494 100.327 68.768 99.9214 68.1669C98.7044 66.3034 97.8255 64.44 98.434 62.1558C98.6368 61.3743 98.434 60.1721 97.2847 59.9316C96.2706 59.6912 95.3917 60.5929 94.986 61.3142C94.0395 63.2378 92.3493 64.5602 90.7268 65.8225C88.969 67.2051 88.0901 68.768 88.1577 70.8118C88.2253 73.2162 87.0759 75.0797 85.1829 76.6426C83.8984 77.6644 82.6814 78.7464 81.8702 80.1891C80.7884 82.293 77.9489 82.4132 76.3263 83.916C76.1911 84.0362 75.7855 83.9761 75.7179 83.8559C75.3798 83.5553 75.6503 83.1947 75.7855 82.834C77.0024 78.9869 78.625 75.3201 79.1659 71.2927C79.5039 68.6478 81.6673 66.4236 82.8843 63.899C84.304 60.8333 84.5069 57.3469 86.8055 54.5216C88.4281 52.5981 89.307 50.3139 90.862 48.3302C92.3493 46.4066 92.9578 43.8218 93.9719 41.4775C95.7973 37.2697 98.6368 33.9636 103.031 31.7395C104.181 31.1985 104.654 30.4171 104.654 29.2749C104.654 28.7941 104.519 28.1929 105.6 28.0126C106.817 27.8323 106.412 28.8542 107.426 29.5755Z" fill="white"/>
</svg>
